{"title":"Rio PROPER 1080p BluRay x264 CROSSBOW","uid":6551237,"size":7112201659,"categoryP":"video","categoryS":"hd___movies","magnet":"?xt=urn:btih:94deaa7738d455a0c777816ffbcb5e45bb9504c8&amp;dn=Rio+PROPER+1080p+BluRay+x264+CROSSBOW&amp;tr=udp%3A%2F%2Ftracker.openbittorrent.com%3A80&amp;tr=udp%3A%2F%2Fopen.demonii.com%3A1337&amp;tr=udp%3A%2F%2Ftracker.coppersurfer.tk%3A6969&amp;tr=udp%3A%2F%2Fexodus.desync.com%3A6969","seeders":0,"leechers":1,"uploader":"BloodPlus","files":3,"time":1311073484,"description":"Rio (2011)\n\nIMDb: http://www.imdb.com/title/tt1436562/\nIMDb Trailer: http://www.imdb.com/video/imdb/vi470260249/\n\nRating: 7.1/10 (21,159 votes)\n\nVideo\n \n     ID :     1  \n     Format :     AVC  \n     Format/Info :     Advanced Video Codec  \n     Format profile :     &lt;a class=&quot;__cf_email__&quot; href=&quot;/cdn-cgi/l/email-protection&quot; data-cfemail=&quot;efa7868887afa3dbc1de&quot;&gt;[email&amp;#160;protected]&lt;/a&gt;&lt;script cf-hash='f9e31' type=&quot;text/javascript&quot;&gt;\n/* &lt;![CDATA[ */!function(){try{var t=&quot;currentScript&quot;in document?document.currentScript:function(){for(var t=document.getElementsByTagName(&quot;script&quot;),e=t.length;e--;)if(t[e].getAttribute(&quot;cf-hash&quot;))return t[e]}();if(t&amp;&amp;t.previousSibling){var e,r,n,i,c=t.previousSibling,a=c.getAttribute(&quot;data-cfemail&quot;);if(a){for(e=&quot;&quot;,r=parseInt(a.substr(0,2),16),n=2;a.length-n;n+=2)i=parseInt(a.substr(n,2),16)^r,e+=String.fromCharCode(i);e=document.createTextNode(e),c.parentNode.replaceChild(e,c)}}}catch(u){}}();/* ]]&gt; */&lt;/script&gt;  \n     Format settings, CABAC :     Yes  \n     Format settings, ReFrames :     5 frames  \n     Codec ID :     V_MPEG4/ISO/AVC  \n     Duration :     1h 26mn  \n     Bit rate :     9 332 Kbps  \n     Width :     1 920 pixels  \n     Height :     800 pixels  \n     Display aspect ratio :     2.40:1  \n     Frame rate :     23.976 fps  \n     Color space :     YUV  \n     Chroma subsampling :     4:2:0  \n     Bit depth :     8 bits  \n     Scan type :     Progressive  \n     Bits/(Pixel*Frame) :     0.253  \n     Stream size :     5.51 GiB (84%)  \n     Writing library :     x264 core 116 r2019 9cc407d  \n     Encoding settings :     cabac=1 / ref=5 / deblock=1:0:0 / analyse=0x3:0x133 / me=umh / subme=7 / psy=1 / psy_rd=1.00:0.00 / mixed_ref=1 / me_range=16 / chroma_me=1 / trellis=1 / 8x8dct=1 / cqm=0 / deadzone=21,11 / fast_pskip=0 / chroma_qp_offset=-2 / threads=12 / sliced_threads=0 / nr=0 / decimate=1 / interlaced=0 / bluray_compat=0 / constrained_intra=0 / bframes=3 / b_pyramid=2 / b_adapt=1 / b_bias=0 / direct=1 / weightb=1 / open_gop=0 / weightp=2 / keyint=250 / keyint_min=23 / scenecut=40 / intra_refresh=0 / rc_lookahead=40 / rc=2pass / mbtree=1 / bitrate=9332 / ratetol=1.0 / qcomp=0.60 / qpmin=0 / qpmax=69 / qpstep=4 / cplxblur=20.0 / qblur=0.5 / ip_ratio=1.40 / aq=1:1.00  \n     Language :     English\n\nAudio\n \n     ID :     2  \n     Format :     DTS  \n     Format/Info :     Digital Theater Systems  \n     Codec ID :     A_DTS  \n     Duration :     1h 26mn  \n     Bit rate mode :     Constant  \n     Bit rate :     1 510 Kbps  \n     Channel(s) :     6 channels  \n     Channel positions :     Front: L C R, Side: L R, LFE  \n     Sampling rate :     48.0 KHz  \n     Bit depth :     24 bits  \n     Compression mode :     Lossy  \n     Stream size :     935 MiB (14%)  \n     Language :     English\n\nText\n \n     ID :     3  \n     Format :     UTF-8  \n     Codec ID :     S_TEXT/UTF8  \n     Codec ID/Info :     UTF-8 Plain Text  \n     Language :     English\n\n\nWhen Blu, a domesticated macaw from small-town Minnesota, meets the fiercely independent Jewel, he takes off on an adventure to Rio de Janeiro with this bird of his dreams.","torrent":{"xt":"urn:btih:94deaa7738d455a0c777816ffbcb5e45bb9504c8","amp;dn":"Rio+PROPER+1080p+BluRay+x264+CROSSBOW","amp;tr":["udp%3A%2F%2Ftracker.openbittorrent.com%3A80","udp%3A%2F%2Fopen.demonii.com%3A1337","udp%3A%2F%2Ftracker.coppersurfer.tk%3A6969","udp%3A%2F%2Fexodus.desync.com%3A6969"],"infoHash":"94deaa7738d455a0c777816ffbcb5e45bb9504c8","infoHashBuffer":{"type":"Buffer","data":[148,222,170,119,56,212,85,160,199,119,129,111,251,203,94,69,187,149,4,200]},"announce":[],"urlList":[]}}